REM DIRINDEX 1\2,1\3,1\4,1\5,1\6
REM DIRNAME folder01,folder02,folder03,folder04,folder05,folder06
TITLE ""
FILE "Disc1Track41.mp3" MP3
  TRACK 01 AUDIO
    TITLE "3:cjc030_00991"
    INDEX 01 00:00:00
  TRACK 02 AUDIO
    TITLE "0:"
    INDEX 01 00:01:11
  TRACK 03 AUDIO
    TITLE "4:cjc030_00992"
    INDEX 01 00:01:19
  TRACK 04 AUDIO
    TITLE "0:"
    INDEX 01 00:05:26
  TRACK 05 AUDIO
    TITLE "5:cjc030_00993"
    INDEX 01 00:05:34
  TRACK 06 AUDIO
    TITLE "0:"
    INDEX 01 00:06:49
  TRACK 07 AUDIO
    TITLE "6:cjc030_00994"
    INDEX 01 00:06:61
  TRACK 08 AUDIO
    TITLE "0:"
    INDEX 01 00:11:44
  TRACK 09 AUDIO
    TITLE "3:cjc030_00995"
    INDEX 01 00:12:18
  TRACK 10 AUDIO
    TITLE "0:"
    INDEX 01 00:13:43
  TRACK 11 AUDIO
    TITLE "4:cjc030_00996"
    INDEX 01 00:13:53
  TRACK 12 AUDIO
    TITLE "0:"
    INDEX 01 00:15:01
  TRACK 13 AUDIO
    TITLE "5:cjc030_00997"
    INDEX 01 00:15:09
  TRACK 14 AUDIO
    TITLE "0:"
    INDEX 01 00:16:34
  TRACK 15 AUDIO
    TITLE "6:cjc030_00998"
    INDEX 01 00:16:49
  TRACK 16 AUDIO
    TITLE "0:"
    INDEX 01 00:22:25
  TRACK 17 AUDIO
    TITLE "3:cjc030_00999"
    INDEX 01 00:22:74
  TRACK 18 AUDIO
    TITLE "0:"
    INDEX 01 00:24:37
  TRACK 19 AUDIO
    TITLE "4:cjc030_01000"
    INDEX 01 00:24:45
  TRACK 20 AUDIO
    TITLE "0:"
    INDEX 01 00:25:66
  TRACK 21 AUDIO
    TITLE "5:cjc030_01001"
    INDEX 01 00:25:74
  TRACK 22 AUDIO
    TITLE "0:"
    INDEX 01 00:27:36
  TRACK 23 AUDIO
    TITLE "6:cjc030_01002"
    INDEX 01 00:27:49
  TRACK 24 AUDIO
    TITLE "0:"
    INDEX 01 00:32:45
  TRACK 25 AUDIO
    TITLE "3:cjc030_01003"
    INDEX 01 00:33:19
  TRACK 26 AUDIO
    TITLE "0:"
    INDEX 01 00:34:36
  TRACK 27 AUDIO
    TITLE "4:cjc030_01004"
    INDEX 01 00:34:45
  TRACK 28 AUDIO
    TITLE "0:"
    INDEX 01 00:35:53
  TRACK 29 AUDIO
    TITLE "5:cjc030_01005"
    INDEX 01 00:35:59
  TRACK 30 AUDIO
    TITLE "0:"
    INDEX 01 00:37:03
  TRACK 31 AUDIO
    TITLE "6:cjc030_01006"
    INDEX 01 00:37:18
  TRACK 32 AUDIO
    TITLE "0:"
    INDEX 01 00:42:47
  TRACK 33 AUDIO
    TITLE "3:cjc030_01007"
    INDEX 01 00:43:21
  TRACK 34 AUDIO
    TITLE "0:"
    INDEX 01 00:44:48
  TRACK 35 AUDIO
    TITLE "4:cjc030_01008"
    INDEX 01 00:44:54
  TRACK 36 AUDIO
    TITLE "0:"
    INDEX 01 00:45:53
  TRACK 37 AUDIO
    TITLE "5:cjc030_01009"
    INDEX 01 00:45:61
  TRACK 38 AUDIO
    TITLE "0:"
    INDEX 01 00:47:13
  TRACK 39 AUDIO
    TITLE "3:cjc030_01010"
    INDEX 01 00:47:62
  TRACK 40 AUDIO
    TITLE "0:"
    INDEX 01 00:49:18
  TRACK 41 AUDIO
    TITLE "4:cjc030_01011"
    INDEX 01 00:49:29
  TRACK 42 AUDIO
    TITLE "0:"
    INDEX 01 00:51:48
  TRACK 43 AUDIO
    TITLE "5:cjc030_01012"
    INDEX 01 00:51:56
  TRACK 44 AUDIO
    TITLE "0:"
    INDEX 01 00:53:13
  TRACK 45 AUDIO
    TITLE "6:cjc030_01013"
    INDEX 01 00:53:25
  TRACK 46 AUDIO
    TITLE "0:"
    INDEX 01 00:55:28
  TRACK 47 AUDIO
    TITLE "3:cjc030_01014"
    INDEX 01 00:56:02
  TRACK 48 AUDIO
    TITLE "0:"
    INDEX 01 00:57:31
  TRACK 49 AUDIO
    TITLE "4:cjc030_01015"
    INDEX 01 00:57:39
  TRACK 50 AUDIO
    TITLE "0:"
    INDEX 01 00:58:60
  TRACK 51 AUDIO
    TITLE "5:cjc030_01016"
    INDEX 01 00:58:69
  TRACK 52 AUDIO
    TITLE "0:"
    INDEX 01 01:00:23
  TRACK 53 AUDIO
    TITLE "3:cjc030_01017"
    INDEX 01 01:00:72
  TRACK 54 AUDIO
    TITLE "0:"
    INDEX 01 01:02:20
  TRACK 55 AUDIO
    TITLE "4:cjc030_01018"
    INDEX 01 01:02:30
  TRACK 56 AUDIO
    TITLE "0:"
    INDEX 01 01:05:01
  TRACK 57 AUDIO
    TITLE "5:cjc030_01019"
    INDEX 01 01:05:09
  TRACK 58 AUDIO
    TITLE "0:"
    INDEX 01 01:06:32
  TRACK 59 AUDIO
    TITLE "3:cjc030_01020"
    INDEX 01 01:07:08
  TRACK 60 AUDIO
    TITLE "0:"
    INDEX 01 01:08:48
  TRACK 61 AUDIO
    TITLE "4:cjc030_01021"
    INDEX 01 01:08:58
  TRACK 62 AUDIO
    TITLE "0:"
    INDEX 01 01:11:21
  TRACK 63 AUDIO
    TITLE "5:cjc030_01022"
    INDEX 01 01:11:27
  TRACK 64 AUDIO
    TITLE "0:"
    INDEX 01 01:12:68
  TRACK 65 AUDIO
    TITLE "6:cjc030_01023"
    INDEX 01 01:13:06
  TRACK 66 AUDIO
    TITLE "0:"
    INDEX 01 01:16:61
  TRACK 67 AUDIO
    TITLE "3:cjc030_01024"
    INDEX 01 01:17:33
  TRACK 68 AUDIO
    TITLE "0:"
    INDEX 01 01:18:68
  TRACK 69 AUDIO
    TITLE "4:cjc030_01025"
    INDEX 01 01:19:01
  TRACK 70 AUDIO
    TITLE "0:"
    INDEX 01 01:20:34
  TRACK 71 AUDIO
    TITLE "5:cjc030_01026"
    INDEX 01 01:20:42
  TRACK 72 AUDIO
    TITLE "0:"
    INDEX 01 01:22:01
  TRACK 73 AUDIO
    TITLE "6:cjc030_01027"
    INDEX 01 01:22:15
  TRACK 74 AUDIO
    TITLE "0:"
    INDEX 01 01:26:23
  TRACK 75 AUDIO
    TITLE "3:cjc030_01028"
    INDEX 01 01:26:72
  TRACK 76 AUDIO
    TITLE "0:"
    INDEX 01 01:28:29
  TRACK 77 AUDIO
    TITLE "4:cjc030_01029"
    INDEX 01 01:28:41
  TRACK 78 AUDIO
    TITLE "0:"
    INDEX 01 01:30:58
  TRACK 79 AUDIO
    TITLE "5:cjc030_01030"
    INDEX 01 01:30:67
  TRACK 80 AUDIO
    TITLE "0:"
    INDEX 01 01:32:27
